# xmcd
#
# Track frame offsets:
# 150
# 36905
# 54868
# 71660
# 82606
# 97567
# 109376
# 135366
# 151173
# 167394
# 185755
# 201590
# 224566
# 242056
#
# Disc length: 3578 seconds
#
#
# Revision: 3
# Processed by: cddbd v1.5.2PL0 Copyright (c) Steve Scherf et al.
# Submitted via: FreeRIP 2.951 
#
DISCID=b50df80e
DTITLE=Marco Brasil - A Emoção Continua
DYEAR=2002
DGENRE=Country
TTITLE0=Caminhos Da Vida
TTITLE1=Cowboy Da Estrada
TTITLE2=Esta É Minha Paixão
TTITLE3=Homem Maduro
TTITLE4=Agora Não Tem Mais Sentido
TTITLE5=Tô Chegando Na Fronteira
TTITLE6=Bens Materiais
TTITLE7=Se Encontrar Minha Paixão
TTITLE8=Vida Conturbada
TTITLE9=Magoa De Boiadeiro
TTITLE10=No Cabo Da Enxada
TTITLE11=Amor Pra Toda Vida
TTITLE12=Sou Caipira
TTITLE13=Filho Ingrato
EXTD=YEAR: 2002
EXTT0=
EXTT1=
EXTT2=
EXTT3=
EXTT4=
EXTT5=
EXTT6=
EXTT7=
EXTT8=
EXTT9=
EXTT10=
EXTT11=
EXTT12=
EXTT13=
PLAYORDER=
